<?xml version="1.0" standalone="no"?>
<!DOCTYPE svg PUBLIC "-//W3C//DTD SVG 20010904//EN"
 "http://www.w3.org/TR/2001/REC-SVG-20010904/DTD/svg10.dtd">
<svg version="1.0" xmlns="http://www.w3.org/2000/svg"
 width="512.000000pt" height="512.000000pt" viewBox="0 0 512.000000 512.000000"
 preserveAspectRatio="xMidYMid meet">
<metadata>
Created by potrace 1.11, written by Peter Selinger 2001-2013
</metadata>
<g transform="translate(0.000000,512.000000) scale(0.100000,-0.100000)"
fill="#000000" stroke="none">
<path d="M1679 3555 c-362 -69 -634 -333 -729 -707 -66 -265 -43 -552 63 -763
214 -429 694 -570 1123 -330 68 38 223 156 268 203 l28 30 -33 48 c-19 27 -37
52 -40 57 -4 5 -31 -10 -60 -32 -165 -125 -395 -186 -548 -147 -266 68 -421
322 -421 691 0 358 100 623 271 715 61 33 69 35 164 35 91 0 105 -3 158 -30
66 -33 149 -116 187 -188 23 -43 29 -47 78 -58 40 -8 56 -8 68 1 18 16 129
243 143 294 8 29 7 43 -1 54 -28 34 -171 88 -308 118 -106 22 -316 27 -411 9z"/>
<path d="M3405 3561 c-201 -34 -348 -106 -489 -240 -213 -204 -318 -495 -303
-836 8 -161 33 -271 92 -390 105 -214 251 -346 468 -422 100 -35 280 -43 393
-18 179 39 340 128 518 287 l50 44 -43 57 -43 56 -46 -35 c-114 -87 -322 -164
-441 -164 -75 0 -173 24 -235 58 -80 43 -167 137 -214 234 -60 123 -73 180
-79 365 -11 334 50 565 187 704 71 72 139 99 248 99 65 0 87 -5 140 -30 74
-35 148 -106 192 -183 28 -51 35 -56 81 -67 27 -7 56 -10 63 -7 16 7 140 254
154 309 10 35 8 39 -16 57 -44 31 -146 70 -255 97 -112 27 -328 40 -422 25z"/>
</g>
</svg>
